<mxfile host="app.diagrams.net" modified="2021-08-17T08:18:16.883Z" agent="5.0 (Windows NT 6.1; Win64; x64) AppleWebKit/537.36 (KHTML, like Gecko) Chrome/92.0.4515.131 Safari/537.36" etag="Zl6DkPg5Zr1-KVBRXnic" version="14.9.6" type="github">
  <diagram id="fdxSn0aTEGKGLHu33l52" name="Page-1">
    <mxGraphModel dx="782" dy="425" grid="1" gridSize="10" guides="1" tooltips="1" connect="1" arrows="1" fold="1" page="1" pageScale="1" pageWidth="2339" pageHeight="3300" math="0" shadow="0">
      <root>
        <mxCell id="0" />
        <mxCell id="1" parent="0" />
        <mxCell id="5hCm1DJF488vsJoHjdHc-1" value="" style="group" vertex="1" connectable="0" parent="1">
          <mxGeometry x="130" y="180" width="140" height="20" as="geometry" />
        </mxCell>
        <mxCell id="5hCm1DJF488vsJoHjdHc-2" value="1" style="rounded=0;whiteSpace=wrap;html=1;" vertex="1" parent="5hCm1DJF488vsJoHjdHc-1">
          <mxGeometry x="31.11111111111111" height="20" as="geometry" />
        </mxCell>
        <mxCell id="5hCm1DJF488vsJoHjdHc-4" value="0" style="rounded=0;whiteSpace=wrap;html=1;" vertex="1" parent="5hCm1DJF488vsJoHjdHc-1">
          <mxGeometry x="46.666666666666664" width="15.555555555555555" height="20" as="geometry" />
        </mxCell>
        <mxCell id="5hCm1DJF488vsJoHjdHc-5" value="0" style="rounded=0;whiteSpace=wrap;html=1;" vertex="1" parent="5hCm1DJF488vsJoHjdHc-1">
          <mxGeometry x="62.22222222222222" width="15.555555555555555" height="20" as="geometry" />
        </mxCell>
        <mxCell id="5hCm1DJF488vsJoHjdHc-6" value="0" style="rounded=0;whiteSpace=wrap;html=1;" vertex="1" parent="5hCm1DJF488vsJoHjdHc-1">
          <mxGeometry x="77.77777777777779" width="15.555555555555555" height="20" as="geometry" />
        </mxCell>
        <mxCell id="5hCm1DJF488vsJoHjdHc-7" value="0" style="rounded=0;whiteSpace=wrap;html=1;" vertex="1" parent="5hCm1DJF488vsJoHjdHc-1">
          <mxGeometry x="93.33333333333333" width="15.555555555555555" height="20" as="geometry" />
        </mxCell>
        <mxCell id="5hCm1DJF488vsJoHjdHc-8" value="0" style="rounded=0;whiteSpace=wrap;html=1;" vertex="1" parent="5hCm1DJF488vsJoHjdHc-1">
          <mxGeometry x="108.88888888888889" width="15.555555555555555" height="20" as="geometry" />
        </mxCell>
        <mxCell id="5hCm1DJF488vsJoHjdHc-9" value="1" style="rounded=0;whiteSpace=wrap;html=1;fillColor=#999999;" vertex="1" parent="5hCm1DJF488vsJoHjdHc-1">
          <mxGeometry x="124.44444444444444" width="15.555555555555555" height="20" as="geometry" />
        </mxCell>
        <mxCell id="5hCm1DJF488vsJoHjdHc-21" value="" style="rounded=0;whiteSpace=wrap;html=1;" vertex="1" parent="1">
          <mxGeometry x="110" y="160" width="70" height="120" as="geometry" />
        </mxCell>
        <mxCell id="5hCm1DJF488vsJoHjdHc-10" value="" style="group" vertex="1" connectable="0" parent="1">
          <mxGeometry x="510" y="180" width="200" height="100" as="geometry" />
        </mxCell>
        <mxCell id="5hCm1DJF488vsJoHjdHc-11" value="0" style="rounded=0;whiteSpace=wrap;html=1;fillColor=#999999;" vertex="1" parent="5hCm1DJF488vsJoHjdHc-10">
          <mxGeometry width="20" height="20" as="geometry" />
        </mxCell>
        <mxCell id="5hCm1DJF488vsJoHjdHc-12" value="1" style="rounded=0;whiteSpace=wrap;html=1;" vertex="1" parent="5hCm1DJF488vsJoHjdHc-10">
          <mxGeometry x="20" width="20" height="20" as="geometry" />
        </mxCell>
        <mxCell id="5hCm1DJF488vsJoHjdHc-13" value="0" style="rounded=0;whiteSpace=wrap;html=1;" vertex="1" parent="5hCm1DJF488vsJoHjdHc-10">
          <mxGeometry x="40" width="20" height="20" as="geometry" />
        </mxCell>
        <mxCell id="5hCm1DJF488vsJoHjdHc-14" value="0" style="rounded=0;whiteSpace=wrap;html=1;" vertex="1" parent="5hCm1DJF488vsJoHjdHc-10">
          <mxGeometry x="60" width="20" height="20" as="geometry" />
        </mxCell>
        <mxCell id="5hCm1DJF488vsJoHjdHc-15" value="0" style="rounded=0;whiteSpace=wrap;html=1;" vertex="1" parent="5hCm1DJF488vsJoHjdHc-10">
          <mxGeometry x="80" width="20" height="20" as="geometry" />
        </mxCell>
        <mxCell id="5hCm1DJF488vsJoHjdHc-16" value="0" style="rounded=0;whiteSpace=wrap;html=1;" vertex="1" parent="5hCm1DJF488vsJoHjdHc-10">
          <mxGeometry x="100" width="20" height="20" as="geometry" />
        </mxCell>
        <mxCell id="5hCm1DJF488vsJoHjdHc-17" value="0" style="rounded=0;whiteSpace=wrap;html=1;" vertex="1" parent="5hCm1DJF488vsJoHjdHc-10">
          <mxGeometry x="120" width="20" height="20" as="geometry" />
        </mxCell>
        <mxCell id="5hCm1DJF488vsJoHjdHc-18" value="0" style="rounded=0;whiteSpace=wrap;html=1;" vertex="1" parent="5hCm1DJF488vsJoHjdHc-10">
          <mxGeometry x="140" width="20" height="20" as="geometry" />
        </mxCell>
        <mxCell id="5hCm1DJF488vsJoHjdHc-19" value="1" style="rounded=0;whiteSpace=wrap;html=1;fillColor=#999999;" vertex="1" parent="5hCm1DJF488vsJoHjdHc-10">
          <mxGeometry x="160" width="20" height="20" as="geometry" />
        </mxCell>
        <mxCell id="5hCm1DJF488vsJoHjdHc-23" value="" style="rounded=0;whiteSpace=wrap;html=1;" vertex="1" parent="5hCm1DJF488vsJoHjdHc-10">
          <mxGeometry x="130" y="-20" width="70" height="120" as="geometry" />
        </mxCell>
        <mxCell id="5hCm1DJF488vsJoHjdHc-24" value="RX" style="text;html=1;align=center;verticalAlign=middle;resizable=0;points=[];autosize=1;strokeColor=none;" vertex="1" parent="5hCm1DJF488vsJoHjdHc-10">
          <mxGeometry x="130" y="20" width="30" height="20" as="geometry" />
        </mxCell>
        <mxCell id="5hCm1DJF488vsJoHjdHc-27" value="TX" style="text;html=1;align=center;verticalAlign=middle;resizable=0;points=[];autosize=1;strokeColor=none;" vertex="1" parent="5hCm1DJF488vsJoHjdHc-10">
          <mxGeometry x="130" y="70" width="30" height="20" as="geometry" />
        </mxCell>
        <mxCell id="5hCm1DJF488vsJoHjdHc-20" style="edgeStyle=orthogonalEdgeStyle;rounded=0;orthogonalLoop=1;jettySize=auto;html=1;exitX=1;exitY=0.25;exitDx=0;exitDy=0;" edge="1" parent="1" source="5hCm1DJF488vsJoHjdHc-21">
          <mxGeometry relative="1" as="geometry">
            <Array as="points">
              <mxPoint x="180" y="210" />
            </Array>
            <mxPoint x="637" y="210" as="targetPoint" />
          </mxGeometry>
        </mxCell>
        <mxCell id="5hCm1DJF488vsJoHjdHc-22" style="edgeStyle=orthogonalEdgeStyle;rounded=0;orthogonalLoop=1;jettySize=auto;html=1;" edge="1" parent="1" source="5hCm1DJF488vsJoHjdHc-23">
          <mxGeometry relative="1" as="geometry">
            <mxPoint x="180" y="260" as="targetPoint" />
            <Array as="points">
              <mxPoint x="530" y="260" />
              <mxPoint x="530" y="260" />
            </Array>
          </mxGeometry>
        </mxCell>
        <mxCell id="5hCm1DJF488vsJoHjdHc-25" value="&lt;span style=&quot;color: rgb(0, 0, 0); font-family: helvetica; font-size: 12px; font-style: normal; font-weight: 400; letter-spacing: normal; text-align: center; text-indent: 0px; text-transform: none; word-spacing: 0px; background-color: rgb(248, 249, 250); display: inline; float: none;&quot;&gt;MCU1&lt;/span&gt;" style="text;whiteSpace=wrap;html=1;" vertex="1" parent="1">
          <mxGeometry x="120" y="280" width="60" height="30" as="geometry" />
        </mxCell>
        <mxCell id="5hCm1DJF488vsJoHjdHc-26" value="&lt;span style=&quot;color: rgb(0, 0, 0); font-family: helvetica; font-size: 12px; font-style: normal; font-weight: 400; letter-spacing: normal; text-align: center; text-indent: 0px; text-transform: none; word-spacing: 0px; background-color: rgb(248, 249, 250); display: inline; float: none;&quot;&gt;MCU2&lt;/span&gt;" style="text;whiteSpace=wrap;html=1;" vertex="1" parent="1">
          <mxGeometry x="650" y="280" width="60" height="30" as="geometry" />
        </mxCell>
        <mxCell id="5hCm1DJF488vsJoHjdHc-28" value="RX" style="text;html=1;align=center;verticalAlign=middle;resizable=0;points=[];autosize=1;strokeColor=none;" vertex="1" parent="1">
          <mxGeometry x="150" y="250" width="30" height="20" as="geometry" />
        </mxCell>
        <mxCell id="5hCm1DJF488vsJoHjdHc-29" value="TX" style="text;html=1;align=center;verticalAlign=middle;resizable=0;points=[];autosize=1;strokeColor=none;" vertex="1" parent="1">
          <mxGeometry x="150" y="200" width="30" height="20" as="geometry" />
        </mxCell>
        <mxCell id="5hCm1DJF488vsJoHjdHc-30" value="" style="group" vertex="1" connectable="0" parent="1">
          <mxGeometry x="290" y="180" width="200" height="20" as="geometry" />
        </mxCell>
        <mxCell id="5hCm1DJF488vsJoHjdHc-31" value="" style="group" vertex="1" connectable="0" parent="5hCm1DJF488vsJoHjdHc-30">
          <mxGeometry width="180" height="20" as="geometry" />
        </mxCell>
        <mxCell id="5hCm1DJF488vsJoHjdHc-32" value="0" style="rounded=0;whiteSpace=wrap;html=1;fillColor=#999999;" vertex="1" parent="5hCm1DJF488vsJoHjdHc-31">
          <mxGeometry width="20" height="20" as="geometry" />
        </mxCell>
        <mxCell id="5hCm1DJF488vsJoHjdHc-33" value="1" style="rounded=0;whiteSpace=wrap;html=1;" vertex="1" parent="5hCm1DJF488vsJoHjdHc-31">
          <mxGeometry x="20" width="20" height="20" as="geometry" />
        </mxCell>
        <mxCell id="5hCm1DJF488vsJoHjdHc-34" value="0" style="rounded=0;whiteSpace=wrap;html=1;" vertex="1" parent="5hCm1DJF488vsJoHjdHc-31">
          <mxGeometry x="40" width="20" height="20" as="geometry" />
        </mxCell>
        <mxCell id="5hCm1DJF488vsJoHjdHc-35" value="0" style="rounded=0;whiteSpace=wrap;html=1;" vertex="1" parent="5hCm1DJF488vsJoHjdHc-31">
          <mxGeometry x="60" width="20" height="20" as="geometry" />
        </mxCell>
        <mxCell id="5hCm1DJF488vsJoHjdHc-36" value="0" style="rounded=0;whiteSpace=wrap;html=1;" vertex="1" parent="5hCm1DJF488vsJoHjdHc-31">
          <mxGeometry x="80" width="20" height="20" as="geometry" />
        </mxCell>
        <mxCell id="5hCm1DJF488vsJoHjdHc-37" value="0" style="rounded=0;whiteSpace=wrap;html=1;" vertex="1" parent="5hCm1DJF488vsJoHjdHc-31">
          <mxGeometry x="100" width="20" height="20" as="geometry" />
        </mxCell>
        <mxCell id="5hCm1DJF488vsJoHjdHc-38" value="0" style="rounded=0;whiteSpace=wrap;html=1;" vertex="1" parent="5hCm1DJF488vsJoHjdHc-31">
          <mxGeometry x="120" width="20" height="20" as="geometry" />
        </mxCell>
        <mxCell id="5hCm1DJF488vsJoHjdHc-39" value="0" style="rounded=0;whiteSpace=wrap;html=1;" vertex="1" parent="5hCm1DJF488vsJoHjdHc-31">
          <mxGeometry x="140" width="20" height="20" as="geometry" />
        </mxCell>
        <mxCell id="5hCm1DJF488vsJoHjdHc-40" value="0" style="rounded=0;whiteSpace=wrap;html=1;fillColor=#FFFFFF;" vertex="1" parent="5hCm1DJF488vsJoHjdHc-31">
          <mxGeometry x="160" width="20" height="20" as="geometry" />
        </mxCell>
        <mxCell id="5hCm1DJF488vsJoHjdHc-41" value="&lt;font style=&quot;font-size: 12px&quot;&gt;1&lt;/font&gt;" style="rounded=0;whiteSpace=wrap;html=1;fillColor=#999999;" vertex="1" parent="5hCm1DJF488vsJoHjdHc-30">
          <mxGeometry x="180" width="20" height="20" as="geometry" />
        </mxCell>
        <mxCell id="5hCm1DJF488vsJoHjdHc-42" style="edgeStyle=none;rounded=0;orthogonalLoop=1;jettySize=auto;html=1;" edge="1" parent="1" source="5hCm1DJF488vsJoHjdHc-43">
          <mxGeometry relative="1" as="geometry">
            <mxPoint x="280" y="190" as="targetPoint" />
          </mxGeometry>
        </mxCell>
        <mxCell id="5hCm1DJF488vsJoHjdHc-43" value="&lt;span&gt;T1&lt;/span&gt;" style="text;html=1;align=center;verticalAlign=middle;resizable=0;points=[];autosize=1;strokeColor=none;" vertex="1" parent="1">
          <mxGeometry x="270" y="140" width="30" height="20" as="geometry" />
        </mxCell>
        <mxCell id="5hCm1DJF488vsJoHjdHc-44" style="edgeStyle=none;rounded=0;orthogonalLoop=1;jettySize=auto;html=1;" edge="1" parent="1" source="5hCm1DJF488vsJoHjdHc-45">
          <mxGeometry relative="1" as="geometry">
            <mxPoint x="500" y="190" as="targetPoint" />
          </mxGeometry>
        </mxCell>
        <mxCell id="5hCm1DJF488vsJoHjdHc-45" value="T2" style="text;html=1;align=center;verticalAlign=middle;resizable=0;points=[];autosize=1;strokeColor=none;" vertex="1" parent="1">
          <mxGeometry x="490" y="140" width="30" height="20" as="geometry" />
        </mxCell>
        <mxCell id="5hCm1DJF488vsJoHjdHc-46" value="&lt;span style=&quot;text-align: left&quot;&gt;&lt;b&gt;UART异步传输&lt;/b&gt;&lt;/span&gt;" style="text;html=1;align=center;verticalAlign=middle;resizable=0;points=[];autosize=1;strokeColor=none;" vertex="1" parent="1">
          <mxGeometry x="360" y="120" width="100" height="20" as="geometry" />
        </mxCell>
      </root>
    </mxGraphModel>
  </diagram>
</mxfile>
